<svg xmlns="http://www.w3.org/2000/svg" width="720" height="103" viewBox="0 0 720 103">
  <g fill="none" fill-rule="evenodd">
    <path fill="#1E343B" d="M33.6107464,60.9847551 C33.6107464,66.3065701 29.1072673,69.5132542 21.8751246,69.5132542 L5.84126556,69.5132542 L5.84126556,52.6610592 L20.9203993,52.6610592 C29.2440952,52.6610592 33.6107464,55.6625015 33.6107464,60.8479272 L33.6107464,60.9847551 Z M5.84126556,31.4413359 L20.3739649,31.4413359 C27.1969397,31.4413359 30.9496196,34.5120692 30.9496196,39.2194744 L30.9496196,39.3563023 C30.9496196,44.9504575 26.4465791,47.8848015 19.9647969,47.8848015 L5.84126556,47.8848015 L5.84126556,31.4413359 Z M28.8344887,49.6587398 C34.4974963,51.3642642 39.0689508,54.6393622 39.0689508,61.1895583 L39.0689508,61.3255091 C39.0689508,69.5132542 32.1780006,74.3574873 21.7387353,74.3574873 L0.519450524,74.3574873 L0.519450524,26.5971028 L20.8519854,26.5971028 C26.3101898,26.5971028 30.608427,28.1662378 33.3375292,30.8273646 C35.3162708,32.8740816 36.407824,35.3988191 36.407824,38.4691139 L36.407824,38.6055032 C36.407824,44.8145067 32.5871686,48.0207522 28.8344887,49.6587398 Z M71.2066177,52.7289469 L71.2066177,69.4451911 L100.681623,69.4451911 L100.681623,74.3573996 L65.8163888,74.3573996 L65.8163888,26.597015 L100.34043,26.597015 L100.34043,31.5096621 L71.2066177,31.5096621 L71.2066177,47.8162998 L97.2701356,47.8162998 L97.2701356,52.7289469 L71.2066177,52.7289469 Z M141.82616,26.2563487 L146.875197,26.2563487 L168.640039,74.3574873 L162.840642,74.3574873 L157.24561,61.7351156 L131.250506,61.7351156 L125.587498,74.3574873 L120.06088,74.3574873 L141.82616,26.2563487 Z M133.365637,56.8908825 L155.130479,56.8908825 L144.282484,32.532889 L133.365637,56.8908825 Z M221.246893,54.3662328 L221.246893,26.5971905 L226.637122,26.5971905 L226.637122,53.9570648 C226.637122,67.8757929 218.65418,75.1079356 206.714194,75.1079356 C194.910597,75.1079356 186.859241,67.8757929 186.859241,54.3662328 L186.859241,26.5971905 L192.24947,26.5971905 L192.24947,54.0254787 C192.24947,64.3279162 197.707674,70.1273132 206.850583,70.1273132 C215.652299,70.1273132 221.246893,64.8054981 221.246893,54.3662328 Z M249.631968,31.5778568 L249.631968,26.5972343 L287.15789,26.5972343 L287.15789,31.5778568 L271.124031,31.5778568 L271.124031,74.3576189 L265.665827,74.3576189 L265.665827,31.5778568 L249.631968,31.5778568 Z M313.428317,74.3576189 L313.428317,26.5972343 L318.818546,26.5972343 L318.818546,74.3576189 L313.428317,74.3576189 Z M349.18109,74.3575312 L349.18109,26.5971466 L383.500328,26.5971466 L383.500328,31.5777691 L354.571319,31.5777691 L354.571319,48.6352059 L380.430034,48.6352059 L380.430034,53.5478529 L354.571319,53.5478529 L354.571319,74.3575312 L349.18109,74.3575312 Z M442.58857,54.3662328 L442.58857,26.5971905 L447.978799,26.5971905 L447.978799,53.9570648 C447.978799,67.8757929 439.995857,75.1079356 428.055871,75.1079356 C416.252274,75.1079356 408.200918,67.8757929 408.200918,54.3662328 L408.200918,26.5971905 L413.591147,26.5971905 L413.591147,54.0254787 C413.591147,64.3279162 419.049351,70.1273132 428.19226,70.1273132 C436.993976,70.1273132 442.58857,64.8054981 442.58857,54.3662328 Z M485.57489,26.597015 L485.57489,69.3767772 L512.457182,69.3767772 L512.457182,74.3573996 L480.184661,74.3573996 L480.184661,26.597015 L485.57489,26.597015 Z M604.838513,26.2559979 L614.527418,26.2559979 L634.996342,74.357575 L624.011081,74.357575 L619.64443,63.645531 L599.448723,63.645531 L595.082072,74.357575 L584.370028,74.357575 L604.838513,26.2559979 Z M603.201403,54.3662328 L615.89175,54.3662328 L609.546796,38.8788081 L603.201403,54.3662328 Z M658.196079,74.3576189 L658.196079,26.5972343 L668.70332,26.5972343 L668.70332,74.3576189 L658.196079,74.3576189 Z"/>
    <path fill="#11A9E2" fill-rule="nonzero" d="M683.440516,103 L683.440516,95.5565231 L712.335907,95.5565231 L712.335907,7.44347691 L683.440516,7.44347691 L683.440516,0 L719.83939,0 L719.83939,103 L683.440516,103 Z M578.108643,103 L550.393957,103 L541.83939,103 L541.83939,0 L578.108643,0 L578.108643,7.44347691 L549.342873,7.44347691 L549.342873,95.5565231 L578.108643,95.5565231 L578.108643,103 Z"/>
  </g>
</svg>
